<svg xmlns="http://www.w3.org/2000/svg" viewBox="0 0 100 100">
  <defs>
    <linearGradient id="grad" x1="0%" y1="0%" x2="100%" y2="100%">
      <stop offset="0%" style="stop-color:#6366f1;stop-opacity:1" />
      <stop offset="100%" style="stop-color:#9333ea;stop-opacity:1" />
    </linearGradient>
  </defs>
  <!-- Background rounded square -->
  <rect x="5" y="5" width="90" height="90" rx="20" fill="url(#grad)"/>
  <!-- QR pattern - stylized -->
  <rect x="20" y="20" width="20" height="20" rx="4" fill="white" opacity="0.9"/>
  <rect x="60" y="20" width="20" height="20" rx="4" fill="white" opacity="0.9"/>
  <rect x="20" y="60" width="20" height="20" rx="4" fill="white" opacity="0.9"/>
  <rect x="60" y="60" width="12" height="12" rx="3" fill="white" opacity="0.9"/>
  <rect x="60" y="76" width="12" height="4" rx="2" fill="white" opacity="0.7"/>
  <rect x="76" y="60" width="4" height="12" rx="2" fill="white" opacity="0.7"/>
  <rect x="44" y="20" width="8" height="8" rx="2" fill="white" opacity="0.6"/>
  <rect x="44" y="32" width="8" height="8" rx="2" fill="white" opacity="0.6"/>
  <rect x="32" y="44" width="8" height="8" rx="2" fill="white" opacity="0.6"/>
  <rect x="44" y="44" width="8" height="8" rx="2" fill="white" opacity="0.6"/>
  <rect x="56" y="44" width="8" height="8" rx="2" fill="white" opacity="0.6"/>
  <rect x="20" y="44" width="8" height="8" rx="2" fill="white" opacity="0.5"/>
  <rect x="20" y="84" width="8" height="8" rx="2" fill="white" opacity="0.5"/>
  <rect x="84" y="84" width="8" height="8" rx="2" fill="white" opacity="0.5"/>
  <rect x="84" y="20" width="8" height="8" rx="2" fill="white" opacity="0.5"/>
</svg>
